<?xml version="1.0" standalone="no"?>
<!DOCTYPE svg PUBLIC "-//W3C//DTD SVG 20010904//EN"
 "http://www.w3.org/TR/2001/REC-SVG-20010904/DTD/svg10.dtd">
<svg version="1.0" xmlns="http://www.w3.org/2000/svg"
 width="700.000000pt" height="700.000000pt" viewBox="0 0 700.000000 700.000000"
 preserveAspectRatio="xMidYMid meet">
<metadata>
Created by potrace 1.11, written by Peter Selinger 2001-2013
</metadata>
<g transform="translate(0.000000,700.000000) scale(0.100000,-0.100000)"
fill="#000000" stroke="none">
<path d="M860 6989 c-158 -19 -333 -78 -457 -155 -231 -144 -359 -358 -392
-658 -8 -65 -11 -915 -11 -2673 0 -2244 2 -2591 15 -2678 63 -418 289 -693
652 -793 l98 -27 2660 -3 c1861 -2 2685 0 2743 8 181 24 394 109 519 210 130
104 231 264 281 446 l27 99 0 2695 c0 2905 3 2729 -52 2905 -113 362 -380 582
-758 625 -112 12 -5215 11 -5325 -1z m1184 -2345 c292 -50 536 -186 756 -421
133 -143 232 -306 284 -471 55 -175 56 -193 56 -993 l0 -739 -170 0 -170 0 0
202 0 201 -97 -95 c-245 -236 -508 -351 -843 -365 -396 -17 -719 112 -1002
399 -257 261 -388 580 -388 948 0 369 127 682 386 950 275 285 599 419 974
404 69 -2 165 -11 214 -20z m2981 -8 c118 -27 195 -55 310 -111 352 -174 622
-519 710 -908 51 -226 37 -514 -37 -737 -116 -354 -421 -684 -767 -831 -226
-95 -519 -119 -779 -64 -252 53 -500 191 -669 374 l-53 56 0 -652 0 -653 -170
0 -171 0 4 1188 c3 838 7 1203 15 1243 52 255 154 463 319 654 219 252 490
406 802 455 87 14 404 4 486 -14z"/>
<path d="M1640 4315 c-316 -60 -580 -261 -721 -550 -80 -163 -93 -227 -93
-450 0 -177 2 -196 27 -276 56 -182 140 -323 270 -453 137 -137 285 -222 462
-267 127 -32 333 -32 455 0 101 26 221 80 303 137 79 55 206 181 262 260 185
259 240 588 149 901 -94 325 -373 602 -689 684 -105 27 -319 34 -425 14z"/>
<path d="M4590 4320 c-374 -49 -710 -357 -817 -748 -24 -85 -27 -116 -28 -252
0 -237 45 -400 159 -574 203 -309 512 -471 866 -452 207 10 361 62 520 174
215 152 357 362 416 617 28 118 26 339 -4 459 -46 184 -144 357 -281 495 -89
91 -173 149 -285 201 -165 76 -361 105 -546 80z"/>
</g>
</svg>
